<svg id="SvgjsSvg1001" width="288" height="288" xmlns="http://www.w3.org/2000/svg" version="1.1" xmlns:xlink="http://www.w3.org/1999/xlink" xmlns:svgjs="http://svgjs.com/svgjs"><defs id="SvgjsDefs1002"></defs><g id="SvgjsG1008" transform="matrix(0.9167,0,0,0.9167,11.995199880838413,11.995199880838413)"><!--?xml version="1.0" encoding="UTF-8" standalone="no"?--><svg xmlns:dc="http://purl.org/dc/elements/1.1/" xmlns:cc="http://creativecommons.org/ns#" xmlns:rdf="http://www.w3.org/1999/02/22-rdf-syntax-ns#" xmlns:svg="http://www.w3.org/2000/svg" xmlns="http://www.w3.org/2000/svg" viewBox="0 0 47.5 47.5" style="enable-background:new 0 0 47.5 47.5;" xml:space="preserve" version="1.1" id="svg2" width="288" height="288"><defs id="defs6"><clipPath id="clipPath16" clipPathUnits="userSpaceOnUse"><path id="path18" d="M 0,38 38,38 38,0 0,0 0,38 Z" fill="#000000" class="color000 svgShape"></path></clipPath></defs><g transform="matrix(1.25,0,0,-1.25,0,47.5)" id="g10" fill="#000000" class="color000 svgShape"><g id="g12" fill="#000000" class="color000 svgShape"><g clip-path="url(#clipPath16)" id="g14" fill="#000000" class="color000 svgShape"><g transform="translate(37,5)" id="g20" fill="#000000" class="color000 svgShape"><path id="path22" style="fill-opacity: 1; fill-rule: nonzero; stroke: none;" d="m 0,0 c 0,-2.209 -1.791,-4 -4,-4 l -28,0 c -2.209,0 -4,1.791 -4,4 l 0,28 c 0,2.209 1.791,4 4,4 l 28,0 c 2.209,0 4,-1.791 4,-4 L 0,0 Z" fill="#f4eeff" class="colorrgb59136195 svgShape"></path></g><g transform="translate(9,27.8438)" id="g24" fill="#000000" class="color000 svgShape"><path id="path26" style="fill-opacity: 1; fill-rule: nonzero; stroke: none;" d="M 0,0 C 0,1.55 1.167,2.418 2.5,2.418 3.833,2.418 5,1.55 5,0 l 0,-10.821 c 0,-2.853 2.055,-4.923 5,-4.923 2.822,0 5,2.194 5,4.923 L 15,0 c 0,1.55 1.168,2.418 2.5,2.418 1.334,0 2.467,-0.868 2.467,-2.418 l 0,-11.069 c 0,-5.209 -4.852,-9.147 -9.967,-9.147 -5.178,0 -10,3.876 -10,9.147 L 0,0 Z" fill="#180101" class="colorrgb255255255 svgShape"></path></g></g></g></g>
	
	<metadata>
		<rdf:rdf xmlns:rdf="http://www.w3.org/1999/02/22-rdf-syntax-ns#" xmlns:rdfs="http://www.w3.org/2000/01/rdf-schema#" xmlns:dc="http://purl.org/dc/elements/1.1/">
			<rdf:description about="https://iconscout.com/legal#licenses" dc:title="U, Characters, Character, Alphabet, Letter" dc:description="U, Characters, Character, Alphabet, Letter" dc:publisher="Iconscout" dc:date="2016-12-14" dc:format="image/svg+xml" dc:language="en">
				<dc:creator>
					<rdf:bag>
						<rdf:li>Twitter Emoji</rdf:li>
					</rdf:bag>
				</dc:creator>
			</rdf:description>
		</rdf:rdf>
    </metadata></svg>
</g></svg>